<mxfile host="app.diagrams.net" modified="2021-09-12T04:54:44.324Z" agent="5.0 (Windows NT 10.0; Win64; x64) AppleWebKit/537.36 (KHTML, like Gecko) Chrome/93.0.4577.63 Safari/537.36" etag="FmuHl9hXRmJA4HfB84yS" version="15.1.4" type="github">
  <diagram id="-tXo5aqi0tB2SsTxorsM" name="Page-1">
    <mxGraphModel dx="1038" dy="579" grid="1" gridSize="10" guides="1" tooltips="1" connect="1" arrows="1" fold="1" page="1" pageScale="1" pageWidth="827" pageHeight="1169" math="0" shadow="0">
      <root>
        <mxCell id="0" />
        <mxCell id="1" parent="0" />
        <mxCell id="KkOyvElttg2o94dctyjD-16" style="edgeStyle=orthogonalEdgeStyle;rounded=0;orthogonalLoop=1;jettySize=auto;html=1;entryX=0.657;entryY=0.988;entryDx=0;entryDy=0;entryPerimeter=0;" edge="1" parent="1" source="KkOyvElttg2o94dctyjD-2" target="KkOyvElttg2o94dctyjD-3">
          <mxGeometry relative="1" as="geometry">
            <Array as="points">
              <mxPoint x="159" y="270" />
            </Array>
          </mxGeometry>
        </mxCell>
        <mxCell id="KkOyvElttg2o94dctyjD-58" value="notification order detail &amp;amp; driver info" style="edgeLabel;html=1;align=center;verticalAlign=middle;resizable=0;points=[];" vertex="1" connectable="0" parent="KkOyvElttg2o94dctyjD-16">
          <mxGeometry x="-0.0688" y="-1" relative="1" as="geometry">
            <mxPoint x="13" y="1" as="offset" />
          </mxGeometry>
        </mxCell>
        <mxCell id="KkOyvElttg2o94dctyjD-29" style="edgeStyle=orthogonalEdgeStyle;rounded=0;orthogonalLoop=1;jettySize=auto;html=1;entryX=0;entryY=0.75;entryDx=0;entryDy=0;" edge="1" parent="1" source="KkOyvElttg2o94dctyjD-2" target="KkOyvElttg2o94dctyjD-4">
          <mxGeometry relative="1" as="geometry">
            <Array as="points">
              <mxPoint x="430" y="560" />
              <mxPoint x="340" y="560" />
              <mxPoint x="340" y="621" />
            </Array>
          </mxGeometry>
        </mxCell>
        <mxCell id="KkOyvElttg2o94dctyjD-64" value="customer order detail" style="edgeLabel;html=1;align=center;verticalAlign=middle;resizable=0;points=[];" vertex="1" connectable="0" parent="KkOyvElttg2o94dctyjD-29">
          <mxGeometry x="0.2865" y="3" relative="1" as="geometry">
            <mxPoint y="-2" as="offset" />
          </mxGeometry>
        </mxCell>
        <mxCell id="KkOyvElttg2o94dctyjD-34" style="edgeStyle=orthogonalEdgeStyle;rounded=0;orthogonalLoop=1;jettySize=auto;html=1;entryX=0.25;entryY=1;entryDx=0;entryDy=0;" edge="1" parent="1" source="KkOyvElttg2o94dctyjD-2" target="KkOyvElttg2o94dctyjD-4">
          <mxGeometry relative="1" as="geometry">
            <Array as="points">
              <mxPoint x="420" y="530" />
              <mxPoint x="220" y="530" />
              <mxPoint x="220" y="655" />
              <mxPoint x="390" y="655" />
            </Array>
          </mxGeometry>
        </mxCell>
        <mxCell id="KkOyvElttg2o94dctyjD-63" value="payment slip" style="edgeLabel;html=1;align=center;verticalAlign=middle;resizable=0;points=[];" vertex="1" connectable="0" parent="KkOyvElttg2o94dctyjD-34">
          <mxGeometry x="0.7598" y="-1" relative="1" as="geometry">
            <mxPoint y="-2" as="offset" />
          </mxGeometry>
        </mxCell>
        <mxCell id="KkOyvElttg2o94dctyjD-38" style="edgeStyle=orthogonalEdgeStyle;rounded=0;orthogonalLoop=1;jettySize=auto;html=1;entryX=0.917;entryY=0.012;entryDx=0;entryDy=0;entryPerimeter=0;" edge="1" parent="1" source="KkOyvElttg2o94dctyjD-2" target="KkOyvElttg2o94dctyjD-5">
          <mxGeometry relative="1" as="geometry">
            <Array as="points">
              <mxPoint x="130" y="390" />
            </Array>
          </mxGeometry>
        </mxCell>
        <mxCell id="KkOyvElttg2o94dctyjD-54" value="customer&amp;nbsp; delivery info" style="edgeLabel;html=1;align=center;verticalAlign=middle;resizable=0;points=[];" vertex="1" connectable="0" parent="KkOyvElttg2o94dctyjD-38">
          <mxGeometry x="0.4735" y="4" relative="1" as="geometry">
            <mxPoint x="42" y="-4" as="offset" />
          </mxGeometry>
        </mxCell>
        <mxCell id="KkOyvElttg2o94dctyjD-43" style="edgeStyle=orthogonalEdgeStyle;rounded=0;orthogonalLoop=1;jettySize=auto;html=1;" edge="1" parent="1" source="KkOyvElttg2o94dctyjD-2" target="KkOyvElttg2o94dctyjD-5">
          <mxGeometry relative="1" as="geometry">
            <Array as="points">
              <mxPoint x="390" y="450" />
            </Array>
          </mxGeometry>
        </mxCell>
        <mxCell id="KkOyvElttg2o94dctyjD-52" value="driver rating, payslip" style="edgeLabel;html=1;align=center;verticalAlign=middle;resizable=0;points=[];" vertex="1" connectable="0" parent="KkOyvElttg2o94dctyjD-43">
          <mxGeometry x="0.432" y="3" relative="1" as="geometry">
            <mxPoint x="3" y="-4" as="offset" />
          </mxGeometry>
        </mxCell>
        <mxCell id="KkOyvElttg2o94dctyjD-69" style="edgeStyle=orthogonalEdgeStyle;rounded=0;orthogonalLoop=1;jettySize=auto;html=1;entryX=0;entryY=0.5;entryDx=0;entryDy=0;" edge="1" parent="1" source="KkOyvElttg2o94dctyjD-2" target="KkOyvElttg2o94dctyjD-10">
          <mxGeometry relative="1" as="geometry">
            <Array as="points">
              <mxPoint x="610" y="360" />
              <mxPoint x="610" y="485" />
            </Array>
          </mxGeometry>
        </mxCell>
        <mxCell id="KkOyvElttg2o94dctyjD-70" value="complain" style="edgeLabel;html=1;align=center;verticalAlign=middle;resizable=0;points=[];" vertex="1" connectable="0" parent="KkOyvElttg2o94dctyjD-69">
          <mxGeometry x="0.575" y="-4" relative="1" as="geometry">
            <mxPoint y="-4" as="offset" />
          </mxGeometry>
        </mxCell>
        <mxCell id="KkOyvElttg2o94dctyjD-71" style="edgeStyle=orthogonalEdgeStyle;rounded=0;orthogonalLoop=1;jettySize=auto;html=1;entryX=0;entryY=0;entryDx=0;entryDy=0;" edge="1" parent="1" source="KkOyvElttg2o94dctyjD-2" target="KkOyvElttg2o94dctyjD-10">
          <mxGeometry relative="1" as="geometry">
            <Array as="points">
              <mxPoint x="710" y="350" />
              <mxPoint x="710" y="460" />
            </Array>
          </mxGeometry>
        </mxCell>
        <mxCell id="KkOyvElttg2o94dctyjD-72" value="notification complain status" style="edgeLabel;html=1;align=center;verticalAlign=middle;resizable=0;points=[];" vertex="1" connectable="0" parent="KkOyvElttg2o94dctyjD-71">
          <mxGeometry x="-0.2781" y="-4" relative="1" as="geometry">
            <mxPoint x="-20" y="-4" as="offset" />
          </mxGeometry>
        </mxCell>
        <mxCell id="KkOyvElttg2o94dctyjD-73" style="edgeStyle=orthogonalEdgeStyle;rounded=0;orthogonalLoop=1;jettySize=auto;html=1;" edge="1" parent="1" source="KkOyvElttg2o94dctyjD-2">
          <mxGeometry relative="1" as="geometry">
            <mxPoint x="435" y="70" as="targetPoint" />
          </mxGeometry>
        </mxCell>
        <mxCell id="KkOyvElttg2o94dctyjD-74" value="credit card verification" style="edgeLabel;html=1;align=center;verticalAlign=middle;resizable=0;points=[];" vertex="1" connectable="0" parent="KkOyvElttg2o94dctyjD-73">
          <mxGeometry x="0.2429" y="3" relative="1" as="geometry">
            <mxPoint x="-12" y="35" as="offset" />
          </mxGeometry>
        </mxCell>
        <mxCell id="KkOyvElttg2o94dctyjD-79" style="edgeStyle=orthogonalEdgeStyle;rounded=0;orthogonalLoop=1;jettySize=auto;html=1;" edge="1" parent="1" source="KkOyvElttg2o94dctyjD-2">
          <mxGeometry relative="1" as="geometry">
            <mxPoint x="810" y="315" as="targetPoint" />
          </mxGeometry>
        </mxCell>
        <mxCell id="KkOyvElttg2o94dctyjD-80" value="monthly report" style="edgeLabel;html=1;align=center;verticalAlign=middle;resizable=0;points=[];" vertex="1" connectable="0" parent="KkOyvElttg2o94dctyjD-79">
          <mxGeometry x="0.1748" y="1" relative="1" as="geometry">
            <mxPoint as="offset" />
          </mxGeometry>
        </mxCell>
        <mxCell id="KkOyvElttg2o94dctyjD-81" style="edgeStyle=orthogonalEdgeStyle;rounded=0;orthogonalLoop=1;jettySize=auto;html=1;entryX=0.5;entryY=1;entryDx=0;entryDy=0;" edge="1" parent="1" source="KkOyvElttg2o94dctyjD-2" target="KkOyvElttg2o94dctyjD-8">
          <mxGeometry relative="1" as="geometry">
            <Array as="points">
              <mxPoint x="800" y="260" />
            </Array>
          </mxGeometry>
        </mxCell>
        <mxCell id="KkOyvElttg2o94dctyjD-82" value="troubleshoot" style="edgeLabel;html=1;align=center;verticalAlign=middle;resizable=0;points=[];" vertex="1" connectable="0" parent="KkOyvElttg2o94dctyjD-81">
          <mxGeometry x="-0.415" y="-1" relative="1" as="geometry">
            <mxPoint y="-2" as="offset" />
          </mxGeometry>
        </mxCell>
        <mxCell id="KkOyvElttg2o94dctyjD-92" style="edgeStyle=orthogonalEdgeStyle;rounded=0;orthogonalLoop=1;jettySize=auto;html=1;" edge="1" parent="1" source="KkOyvElttg2o94dctyjD-2">
          <mxGeometry relative="1" as="geometry">
            <mxPoint x="110" y="90" as="targetPoint" />
            <Array as="points">
              <mxPoint x="400" y="170" />
              <mxPoint x="110" y="170" />
            </Array>
          </mxGeometry>
        </mxCell>
        <mxCell id="KkOyvElttg2o94dctyjD-95" value="corporate tax return &amp;amp; tax payment" style="edgeLabel;html=1;align=center;verticalAlign=middle;resizable=0;points=[];" vertex="1" connectable="0" parent="KkOyvElttg2o94dctyjD-92">
          <mxGeometry x="0.0241" y="2" relative="1" as="geometry">
            <mxPoint x="7" y="-2" as="offset" />
          </mxGeometry>
        </mxCell>
        <mxCell id="KkOyvElttg2o94dctyjD-2" value="Uber Eats System, Victoria" style="shape=ellipse;html=1;dashed=0;whitespace=wrap;perimeter=ellipsePerimeter;fillColor=#dae8fc;strokeColor=#6c8ebf;" vertex="1" parent="1">
          <mxGeometry x="330" y="210" width="210" height="210" as="geometry" />
        </mxCell>
        <mxCell id="KkOyvElttg2o94dctyjD-11" style="edgeStyle=orthogonalEdgeStyle;rounded=0;orthogonalLoop=1;jettySize=auto;html=1;" edge="1" parent="1" source="KkOyvElttg2o94dctyjD-3" target="KkOyvElttg2o94dctyjD-2">
          <mxGeometry relative="1" as="geometry">
            <Array as="points">
              <mxPoint x="230" y="220" />
              <mxPoint x="230" y="220" />
            </Array>
          </mxGeometry>
        </mxCell>
        <mxCell id="KkOyvElttg2o94dctyjD-60" value="customer info &amp;amp; detail" style="edgeLabel;html=1;align=center;verticalAlign=middle;resizable=0;points=[];" vertex="1" connectable="0" parent="KkOyvElttg2o94dctyjD-11">
          <mxGeometry x="-0.2474" y="-2" relative="1" as="geometry">
            <mxPoint y="-2" as="offset" />
          </mxGeometry>
        </mxCell>
        <mxCell id="KkOyvElttg2o94dctyjD-18" style="edgeStyle=orthogonalEdgeStyle;rounded=0;orthogonalLoop=1;jettySize=auto;html=1;" edge="1" parent="1" source="KkOyvElttg2o94dctyjD-3" target="KkOyvElttg2o94dctyjD-2">
          <mxGeometry relative="1" as="geometry">
            <Array as="points">
              <mxPoint x="140" y="300" />
            </Array>
          </mxGeometry>
        </mxCell>
        <mxCell id="KkOyvElttg2o94dctyjD-57" value="review food &amp;amp; driver rating" style="edgeLabel;html=1;align=center;verticalAlign=middle;resizable=0;points=[];" vertex="1" connectable="0" parent="KkOyvElttg2o94dctyjD-18">
          <mxGeometry x="0.0909" y="2" relative="1" as="geometry">
            <mxPoint as="offset" />
          </mxGeometry>
        </mxCell>
        <mxCell id="KkOyvElttg2o94dctyjD-20" style="edgeStyle=orthogonalEdgeStyle;rounded=0;orthogonalLoop=1;jettySize=auto;html=1;entryX=-0.019;entryY=0.569;entryDx=0;entryDy=0;entryPerimeter=0;" edge="1" parent="1" source="KkOyvElttg2o94dctyjD-3" target="KkOyvElttg2o94dctyjD-2">
          <mxGeometry relative="1" as="geometry">
            <Array as="points">
              <mxPoint x="130" y="330" />
            </Array>
          </mxGeometry>
        </mxCell>
        <mxCell id="KkOyvElttg2o94dctyjD-56" value="complain" style="edgeLabel;html=1;align=center;verticalAlign=middle;resizable=0;points=[];" vertex="1" connectable="0" parent="KkOyvElttg2o94dctyjD-20">
          <mxGeometry x="0.4138" y="-1" relative="1" as="geometry">
            <mxPoint as="offset" />
          </mxGeometry>
        </mxCell>
        <mxCell id="KkOyvElttg2o94dctyjD-3" value="Customer" style="html=1;dashed=0;whitespace=wrap;fillColor=#d5e8d4;strokeColor=#82b366;" vertex="1" parent="1">
          <mxGeometry x="80" y="180" width="120" height="50" as="geometry" />
        </mxCell>
        <mxCell id="KkOyvElttg2o94dctyjD-48" style="edgeStyle=orthogonalEdgeStyle;rounded=0;orthogonalLoop=1;jettySize=auto;html=1;" edge="1" parent="1" source="KkOyvElttg2o94dctyjD-4">
          <mxGeometry relative="1" as="geometry">
            <mxPoint x="480" y="420" as="targetPoint" />
            <Array as="points">
              <mxPoint x="420" y="650" />
              <mxPoint x="520" y="650" />
              <mxPoint x="520" y="420" />
              <mxPoint x="480" y="420" />
            </Array>
          </mxGeometry>
        </mxCell>
        <mxCell id="KkOyvElttg2o94dctyjD-66" value="notification received/ refused order" style="edgeLabel;html=1;align=center;verticalAlign=middle;resizable=0;points=[];" vertex="1" connectable="0" parent="KkOyvElttg2o94dctyjD-48">
          <mxGeometry x="0.0701" y="1" relative="1" as="geometry">
            <mxPoint x="17" as="offset" />
          </mxGeometry>
        </mxCell>
        <mxCell id="KkOyvElttg2o94dctyjD-62" style="edgeStyle=none;rounded=0;orthogonalLoop=1;jettySize=auto;html=1;exitX=0.69;exitY=-0.018;exitDx=0;exitDy=0;exitPerimeter=0;" edge="1" parent="1" source="KkOyvElttg2o94dctyjD-4">
          <mxGeometry relative="1" as="geometry">
            <mxPoint x="446" y="421" as="targetPoint" />
          </mxGeometry>
        </mxCell>
        <mxCell id="KkOyvElttg2o94dctyjD-65" value="vendor info" style="edgeLabel;html=1;align=center;verticalAlign=middle;resizable=0;points=[];" vertex="1" connectable="0" parent="KkOyvElttg2o94dctyjD-62">
          <mxGeometry x="-0.1269" y="1" relative="1" as="geometry">
            <mxPoint x="18" as="offset" />
          </mxGeometry>
        </mxCell>
        <mxCell id="KkOyvElttg2o94dctyjD-4" value="Vendor" style="html=1;dashed=0;whitespace=wrap;fillColor=#d5e8d4;strokeColor=#82b366;" vertex="1" parent="1">
          <mxGeometry x="360" y="580" width="120" height="55" as="geometry" />
        </mxCell>
        <mxCell id="KkOyvElttg2o94dctyjD-36" style="edgeStyle=orthogonalEdgeStyle;rounded=0;orthogonalLoop=1;jettySize=auto;html=1;" edge="1" parent="1" source="KkOyvElttg2o94dctyjD-5" target="KkOyvElttg2o94dctyjD-2">
          <mxGeometry relative="1" as="geometry">
            <Array as="points">
              <mxPoint x="235" y="430" />
              <mxPoint x="235" y="410" />
            </Array>
          </mxGeometry>
        </mxCell>
        <mxCell id="KkOyvElttg2o94dctyjD-53" value="driver info" style="edgeLabel;html=1;align=center;verticalAlign=middle;resizable=0;points=[];" vertex="1" connectable="0" parent="KkOyvElttg2o94dctyjD-36">
          <mxGeometry x="0.0389" y="-2" relative="1" as="geometry">
            <mxPoint x="6" y="-2" as="offset" />
          </mxGeometry>
        </mxCell>
        <mxCell id="KkOyvElttg2o94dctyjD-40" style="edgeStyle=orthogonalEdgeStyle;rounded=0;orthogonalLoop=1;jettySize=auto;html=1;entryX=0.03;entryY=0.729;entryDx=0;entryDy=0;entryPerimeter=0;" edge="1" parent="1" source="KkOyvElttg2o94dctyjD-5" target="KkOyvElttg2o94dctyjD-2">
          <mxGeometry relative="1" as="geometry">
            <Array as="points">
              <mxPoint x="110" y="363" />
            </Array>
          </mxGeometry>
        </mxCell>
        <mxCell id="KkOyvElttg2o94dctyjD-55" value="notification if the job has done" style="edgeLabel;html=1;align=center;verticalAlign=middle;resizable=0;points=[];" vertex="1" connectable="0" parent="KkOyvElttg2o94dctyjD-40">
          <mxGeometry x="-0.4682" relative="1" as="geometry">
            <mxPoint x="63" as="offset" />
          </mxGeometry>
        </mxCell>
        <mxCell id="KkOyvElttg2o94dctyjD-46" style="edgeStyle=orthogonalEdgeStyle;rounded=0;orthogonalLoop=1;jettySize=auto;html=1;entryX=0.32;entryY=0.991;entryDx=0;entryDy=0;entryPerimeter=0;" edge="1" parent="1" source="KkOyvElttg2o94dctyjD-5" target="KkOyvElttg2o94dctyjD-2">
          <mxGeometry relative="1" as="geometry">
            <mxPoint x="400" y="430" as="targetPoint" />
            <Array as="points">
              <mxPoint x="80" y="480" />
              <mxPoint x="400" y="480" />
              <mxPoint x="400" y="430" />
              <mxPoint x="397" y="430" />
            </Array>
          </mxGeometry>
        </mxCell>
        <mxCell id="KkOyvElttg2o94dctyjD-51" value="complain" style="edgeLabel;html=1;align=center;verticalAlign=middle;resizable=0;points=[];" vertex="1" connectable="0" parent="KkOyvElttg2o94dctyjD-46">
          <mxGeometry x="-0.2227" relative="1" as="geometry">
            <mxPoint y="-1" as="offset" />
          </mxGeometry>
        </mxCell>
        <mxCell id="KkOyvElttg2o94dctyjD-5" value="Driver" style="html=1;dashed=0;whitespace=wrap;fillColor=#d5e8d4;strokeColor=#82b366;" vertex="1" parent="1">
          <mxGeometry x="20" y="420" width="120" height="50" as="geometry" />
        </mxCell>
        <mxCell id="KkOyvElttg2o94dctyjD-75" style="edgeStyle=orthogonalEdgeStyle;rounded=0;orthogonalLoop=1;jettySize=auto;html=1;entryX=0.419;entryY=0.005;entryDx=0;entryDy=0;entryPerimeter=0;" edge="1" parent="1" source="KkOyvElttg2o94dctyjD-6" target="KkOyvElttg2o94dctyjD-2">
          <mxGeometry relative="1" as="geometry" />
        </mxCell>
        <mxCell id="KkOyvElttg2o94dctyjD-76" value="approved/rejected payment" style="edgeLabel;html=1;align=center;verticalAlign=middle;resizable=0;points=[];" vertex="1" connectable="0" parent="KkOyvElttg2o94dctyjD-75">
          <mxGeometry x="-0.2943" y="-1" relative="1" as="geometry">
            <mxPoint x="-58" as="offset" />
          </mxGeometry>
        </mxCell>
        <mxCell id="KkOyvElttg2o94dctyjD-6" value="Credit card company" style="html=1;dashed=0;whitespace=wrap;fillColor=#d5e8d4;strokeColor=#82b366;" vertex="1" parent="1">
          <mxGeometry x="360" y="10" width="120" height="50" as="geometry" />
        </mxCell>
        <mxCell id="KkOyvElttg2o94dctyjD-77" style="edgeStyle=orthogonalEdgeStyle;rounded=0;orthogonalLoop=1;jettySize=auto;html=1;" edge="1" parent="1" source="KkOyvElttg2o94dctyjD-7" target="KkOyvElttg2o94dctyjD-2">
          <mxGeometry relative="1" as="geometry">
            <Array as="points">
              <mxPoint x="490" y="65" />
            </Array>
          </mxGeometry>
        </mxCell>
        <mxCell id="KkOyvElttg2o94dctyjD-78" value="payment slip, payslip, monthly &amp;amp; tax return report" style="edgeLabel;html=1;align=center;verticalAlign=middle;resizable=0;points=[];" vertex="1" connectable="0" parent="KkOyvElttg2o94dctyjD-77">
          <mxGeometry x="-0.2142" y="-1" relative="1" as="geometry">
            <mxPoint x="66" y="36" as="offset" />
          </mxGeometry>
        </mxCell>
        <mxCell id="KkOyvElttg2o94dctyjD-7" value="Accounting" style="html=1;dashed=0;whitespace=wrap;fillColor=#d5e8d4;strokeColor=#82b366;" vertex="1" parent="1">
          <mxGeometry x="600" y="40" width="120" height="50" as="geometry" />
        </mxCell>
        <mxCell id="KkOyvElttg2o94dctyjD-83" style="edgeStyle=orthogonalEdgeStyle;rounded=0;orthogonalLoop=1;jettySize=auto;html=1;" edge="1" parent="1" source="KkOyvElttg2o94dctyjD-8" target="KkOyvElttg2o94dctyjD-2">
          <mxGeometry relative="1" as="geometry">
            <Array as="points">
              <mxPoint x="770" y="230" />
            </Array>
          </mxGeometry>
        </mxCell>
        <mxCell id="KkOyvElttg2o94dctyjD-84" value="maintenance, troubleshoot status" style="edgeLabel;html=1;align=center;verticalAlign=middle;resizable=0;points=[];" vertex="1" connectable="0" parent="KkOyvElttg2o94dctyjD-83">
          <mxGeometry x="-0.4765" y="2" relative="1" as="geometry">
            <mxPoint x="-61" y="-2" as="offset" />
          </mxGeometry>
        </mxCell>
        <mxCell id="KkOyvElttg2o94dctyjD-8" value="IT/ Technology" style="html=1;dashed=0;whitespace=wrap;fillColor=#d5e8d4;strokeColor=#82b366;" vertex="1" parent="1">
          <mxGeometry x="740" y="150" width="120" height="50" as="geometry" />
        </mxCell>
        <mxCell id="KkOyvElttg2o94dctyjD-9" value="Head office manager" style="html=1;dashed=0;whitespace=wrap;fillColor=#d5e8d4;strokeColor=#82b366;" vertex="1" parent="1">
          <mxGeometry x="810" y="290" width="120" height="50" as="geometry" />
        </mxCell>
        <mxCell id="KkOyvElttg2o94dctyjD-10" value="Customer service" style="html=1;dashed=0;whitespace=wrap;fillColor=#d5e8d4;strokeColor=#82b366;" vertex="1" parent="1">
          <mxGeometry x="720" y="460" width="120" height="50" as="geometry" />
        </mxCell>
        <mxCell id="KkOyvElttg2o94dctyjD-91" value="ATO" style="html=1;dashed=0;whitespace=wrap;fillColor=#d5e8d4;strokeColor=#82b366;" vertex="1" parent="1">
          <mxGeometry x="50" y="40" width="120" height="50" as="geometry" />
        </mxCell>
      </root>
    </mxGraphModel>
  </diagram>
</mxfile>
